<svg xmlns="http://www.w3.org/2000/svg" viewBox="0 0 512 512">
    <path d="M356.65,450H171.47a41,41,0,0,1-40.9-40.9V120.66a15,15,0,0,1,15-15h237a15,15,0,0,1,15,15V409.1A41,41,0,0,1,356.65,450ZM160.57,135.66V409.1a10.91,10.91,0,0,0,10.9,10.9H356.65a10.91,10.91,0,0,0,10.91-10.9V135.66Z"/>
    <path d="M327.06 135.66h-126a15 15 0 0 1-15-15V93.4a44.79 44.79 0 0 1 44.74-44.73h66.52a44.79 44.79 0 0 1 44.74 44.73v27.26a15 15 0 0 1-15 15zm-111-30h96V93.4a14.75 14.75 0 0 0-14.74-14.73H230.8a14.75 14.75 0 0 0-14.73 14.73zm48 286.92a15 15 0 0 1-15-15V178.09a15 15 0 1 1 30 0v199.49a15 15 0 0 1-15 15zm-54.16 0a15 15 0 0 1-15-15V178.09a15 15 0 0 1 30 0v199.49a15 15 0 0 1-15 15zm108.33 0a15 15 0 0 1-15-15V178.09a15 15 0 0 1 30 0v199.49a15 15 0 0 1-15 15z"/>
    <path d="M405.81,135.66H122.32a15,15,0,0,1,0-30H405.81a15,15,0,0,1,0,30Z"/>
</svg>